<svg width="775" height="219" viewBox="0 0 775 219" fill="none" xmlns="http://www.w3.org/2000/svg">
<mask id="mask0_501_4402" style="mask-type:alpha" maskUnits="userSpaceOnUse" x="0" y="0" width="775" height="219">
<rect width="775" height="219" fill="#C4C4C4"/>
</mask>
<g mask="url(#mask0_501_4402)">
<g opacity="0.05">
<path d="M805.329 42.6112C805.329 42.6112 783.718 61.0221 621.713 65.4239C499.11 68.7539 268.346 8.08588 128.737 11.9901C-14.9537 15.9708 0.482839 56.2375 0.482839 29.2527V69.596C0.482839 69.596 48.467 31.6641 131.877 32.0086C254.532 32.5827 506.802 115.183 627.364 117.748C744.944 120.236 805.329 69.596 805.329 69.596V42.6112Z" fill="white"/>
</g>
<g opacity="0.1">
<path d="M778.619 41.9349C500.934 190.999 310.55 -4.28351 162.773 0.0718536C10.619 4.58003 0 80.7701 0 50.3972V95.8229C0 95.8229 50.0403 77.0331 135.809 71.2782C447.01 50.3972 465.152 237.166 609.79 217.212C754.428 197.259 855.16 0.846954 778.619 41.9349Z" fill="white"/>
</g>
</g>
</svg>
